<?xml version="1.0" encoding="UTF-8" standalone="no"?>
<!DOCTYPE svg PUBLIC "-//W3C//DTD SVG 20010904//EN"
"http://www.w3.org/TR/2001/REC-SVG-20010904/DTD/svg10.dtd">
<!-- Created with Sodipodi ("http://www.sodipodi.com/") -->
<svg
   xmlns="http://www.w3.org/2000/svg"
   xmlns:sodipodi="http://sodipodi.sourceforge.net/DTD/sodipodi-0.dtd"
   xmlns:xlink="http://www.w3.org/1999/xlink"
   id="svg698"
   sodipodi:version="0.34"
   width="600pt"
   height="600pt"
   xml:space="preserve"
   sodipodi:docbase="/home/alex"
   sodipodi:docname="/home/alex/euphoria5.svg"><defs
   id="defs700"><linearGradient
   id="linearGradient787"><stop
   style="stop-color:#ff0000;stop-opacity:1;"
   offset="0"
   id="stop788" /><stop
   style="stop-color:#ff0000;stop-opacity:1;"
   offset="0.85"
   id="stop789" /><stop
   style="stop-color:#ffff00;stop-opacity:1;"
   offset="0.88"
   id="stop790" /><stop
   style="stop-color:#00ff00;stop-opacity:1;"
   offset="0.91"
   id="stop791" /><stop
   style="stop-color:#00ffff;stop-opacity:1;"
   offset="0.94"
   id="stop792" /><stop
   style="stop-color:#0000ff;stop-opacity:1;"
   offset="0.97"
   id="stop793" /><stop
   style="stop-color:#ff00ff;stop-opacity:1;"
   offset="1.0"
   id="stop794" /></linearGradient><linearGradient
   id="linearGradient774"><stop
   style="stop-color:#ff0000;stop-opacity:1;"
   offset="0"
   id="stop775" /><stop
   style="stop-color:#ff0000;stop-opacity:1;"
   offset="0.80"
   id="stop784" /><stop
   style="stop-color:#ffff00;stop-opacity:1;"
   offset="0.84"
   id="stop779" /><stop
   style="stop-color:#00ff00;stop-opacity:1;"
   offset="0.88"
   id="stop780" /><stop
   style="stop-color:#00ffff;stop-opacity:1;"
   offset="0.92"
   id="stop781" /><stop
   style="stop-color:#0000ff;stop-opacity:1;"
   offset="0.96"
   id="stop778" /><stop
   style="stop-color:#ff00ff;stop-opacity:1;"
   offset="1.0"
   id="stop776" /></linearGradient><linearGradient
   id="linearGradient771"><stop
   style="stop-color:#00b2ed;stop-opacity:1;"
   offset="0"
   id="stop772" /><stop
   style="stop-color:#0712ad;stop-opacity:1;"
   offset="1"
   id="stop773" /></linearGradient><linearGradient
   id="linearGradient737"><stop
   style="stop-color:#00dfed;stop-opacity:1;"
   offset="0"
   id="stop738" /><stop
   style="stop-color:#07559f;stop-opacity:1;"
   offset="1"
   id="stop739" /></linearGradient><linearGradient
   xlink:href="#linearGradient737"
   id="linearGradient740"
   x1="0.49450129"
   y1="2.3437513e-2"
   x2="0.49450141"
   y2="0.97657073"
   gradientTransform="scale(1.000008,0.999992)" /><radialGradient
   xlink:href="#linearGradient787"
   id="radialGradient770"
   cy="0.49" /><linearGradient
   xlink:href="#linearGradient774"
   id="linearGradient777"
   x1="2.24871144e-9"
   y1="-4.72939021e-10"
   x2="1"
   y2="-4.72939021e-10" /><radialGradient
   xlink:href="#linearGradient787"
   id="radialGradient795"
   cx="-0.10"
   cy="0"
   r="1.06"
   fx="1.42349452e-2"
   fy="0.96491235" /><radialGradient
   xlink:href="#linearGradient787"
   id="radialGradient798"
   cx="0.49999994"
   cy="0.5"
   r="0.5"
   fx="0.49999994"
   fy="0.5" /></defs><sodipodi:namedview
   id="base" /><path
   style="font-size:12;fill:url(#radialGradient770);fill-rule:evenodd;"
   d="M -123.4591 -17.84739 C 448.3738 115.8654 584.9307 259.128 584.9307 373.7386 C 584.9307 373.7386 747.0922 373.7386 747.0922 373.7386 C 747.0923 20.35689 -123.4591 -17.84739 -123.4591 -17.84739 z M -123.4588 765.3234 C 448.374 631.6113 584.9309 488.3482 584.9309 373.7382 C 584.9309 373.7382 747.0922 373.7382 747.0922 373.7382 C 747.0922 727.1199 -123.4588 765.3234 -123.4588 765.3234 z M -1490.135 -56.21303 L -1490.135 795.2929 L -1345.198 795.2929 L -1345.198 -56.21303 L -1490.135 -56.21303 z "
   id="path729" /><path
   style="font-size:700;font-weight:bold;font-family:Bitstream Vera Sans;fill:url(#linearGradient740);opacity:0.9908;"
   d="M 73.96657 113.4837 L 429.0935 113.4837 L 429.0935 212.9466 L 205.5584 212.9466 L 205.5584 307.9661 L 415.7634 307.9661 L 415.7634 407.429 L 205.5584 407.429 L 205.5584 524.3235 L 436.613 524.3235 L 436.613 623.7864 L 73.96657 623.7864 L 73.96657 113.4837 z "
   id="path736" /><path
   style="fill:none;fill-rule:evenodd;stroke:black;stroke-opacity:1;stroke-width:14pt;stroke-linejoin:miter;stroke-linecap:butt;fill-opacity:1;"
   d="M 73.40946 622.7569 L 435.5628 622.7569 L 435.5628 524.8776 L 203.0995 524.8776 L 203.0995 407.4225 L 415.9869 407.4225 L 415.9869 309.5432 L 203.0995 309.5432 L 203.0995 211.6639 L 428.2219 211.6639 L 428.2219 113.7847 L 73.40946 113.7847 L 73.40946 622.7569 z "
   id="path742" /></svg>
